<?xml version="1.0" standalone="no"?>
<!DOCTYPE svg PUBLIC "-//W3C//DTD SVG 20010904//EN"
 "http://www.w3.org/TR/2001/REC-SVG-20010904/DTD/svg10.dtd">
<svg version="1.0" xmlns="http://www.w3.org/2000/svg"
 width="346.000000pt" height="346.000000pt" viewBox="0 0 346.000000 346.000000"
 preserveAspectRatio="xMidYMid meet">
<metadata>
Created by potrace 1.11, written by Peter Selinger 2001-2013
</metadata>
<g transform="translate(0.000000,346.000000) scale(0.100000,-0.100000)"
fill="#000000" stroke="none">
<path d="M131 2143 c-36 -7 -116 -93 -124 -132 -4 -18 -7 -107 -7 -197 l0
-164 25 0 25 0 0 165 c0 91 0 167 0 170 0 3 6 18 15 34 36 71 135 98 198 55
59 -40 67 -71 67 -258 l0 -166 24 0 25 0 3 179 c3 164 5 182 24 208 58 79 176
76 231 -5 15 -23 18 -51 19 -197 1 -93 3 -173 3 -177 1 -5 12 -8 26 -8 l25 0
0 170 c0 131 -4 179 -15 208 -54 127 -213 163 -306 67 l-34 -34 -30 29 c-52
51 -115 68 -194 53z"/>
<path d="M1260 2138 c-64 -18 -125 -72 -157 -138 -20 -41 -29 -141 -25 -262 3
-86 3 -88 27 -88 l25 0 0 128 c0 70 5 144 9 166 17 71 100 146 166 150 25 1
27 2 29 34 1 21 -25 25 -74 10z"/>
<path d="M1621 2143 c-27 -5 -85 -41 -117 -71 -40 -38 -68 -112 -67 -177 0
-70 18 -117 63 -169 62 -70 94 -80 278 -84 131 -3 162 -1 163 9 3 60 0 262 -5
292 -23 141 -163 230 -315 200z m169 -74 c45 -26 87 -88 95 -143 3 -22 5 -84
3 -136 l-3 -95 -119 0 c-101 -1 -126 2 -166 21 -51 24 -109 98 -111 143 -1 14
-2 33 -3 41 -3 23 31 110 51 133 10 11 41 31 68 44 60 28 126 25 185 -8z"/>
<path d="M2510 2141 c-194 -63 -251 -300 -104 -433 98 -90 249 -89 341 2 51
49 74 98 80 170 9 98 -52 202 -144 245 -41 20 -135 28 -173 16z m156 -67 c68
-33 114 -112 109 -190 -12 -177 -215 -254 -341 -129 -64 65 -77 151 -35 234
23 43 75 89 111 96 13 2 25 6 27 9 9 9 96 -4 129 -20z"/>
<path d="M3145 2141 c-181 -44 -252 -275 -127 -413 99 -109 263 -116 364 -15
183 183 14 489 -237 428z m149 -65 c62 -29 116 -114 116 -180 0 -68 -51 -150
-112 -182 -130 -67 -289 31 -290 180 -2 147 153 245 286 182z"/>
<path d="M870 1894 l0 -245 27 3 28 3 0 225 c0 124 -1 233 -4 243 -2 10 -13
17 -27 17 l-24 0 0 -246z"/>
<path d="M2119 2108 c0 -18 0 -182 -1 -365 l0 -332 -25 -26 c-14 -14 -32 -25
-39 -25 -8 0 -14 -11 -14 -25 0 -14 5 -25 10 -25 29 0 82 33 100 62 19 32 20
50 20 401 l0 367 -25 0 c-21 0 -25 -5 -26 -32z"/>
</g>
</svg>
